<svg xmlns="http://www.w3.org/2000/svg" width="16" height="16" viewBox="0 0 16 16">
    <g fill="none" fill-rule="evenodd">
        <g>
            <g>
                <path d="M0 0L16 0 16 16 0 16z" transform="translate(-560 -644) translate(560 644)"/>
                <path fill="#FFF" fill-rule="nonzero" d="M15.1 4.3c0-.715-.612-1.3-1.36-1.3H2.86c-.748 0-1.36.585-1.36 1.3v7.8c0 .715.612 1.3 1.36 1.3h10.88c.748 0 1.36-.585 1.36-1.3V4.3zm-1.36 0L8.3 7.55 2.86 4.3h10.88zm0 7.8H2.86V5.6L8.3 8.85l5.44-3.25v6.5z" transform="translate(-560 -644) translate(560 644)"/>
            </g>
        </g>
    </g>
</svg>
