<svg xmlns="http://www.w3.org/2000/svg" xmlns:xlink="http://www.w3.org/1999/xlink" width="16" height="16" viewBox="0 0 16 16">
    <defs>
        <path id="usr3pjyj5a" d="M0 0.004L12.996 0.004 12.996 12.379 0 12.379z"/>
    </defs>
    <g fill="none" fill-rule="evenodd">
        <g>
            <g>
                <path d="M0 0L16 0 16 16 0 16z" transform="translate(-806 -2144) translate(806 2144)"/>
                <g>
                    <g transform="translate(-806 -2144) translate(806 2144) translate(1.5 2)">
                        <mask id="inu72dmqlb" fill="#fff">
                            <use xlink:href="#usr3pjyj5a"/>
                        </mask>
                        <path fill="#FFF" d="M6.498.004c-1.765 0-1.986.007-2.68.037-.69.03-1.163.135-1.576.288-.428.158-.79.37-1.151.714-.362.344-.584.689-.75 1.096-.16.393-.27.843-.302 1.502C.007 4.3 0 4.51 0 6.192s.007 1.892.04 2.552c.03.659.14 1.109.301 1.502.166.407.388.752.75 1.096.36.344.723.556 1.15.714.414.153.886.258 1.578.288.693.03.914.037 2.679.037 1.765 0 1.986-.007 2.679-.037.692-.03 1.164-.135 1.577-.288.428-.158.79-.37 1.151-.714.362-.344.584-.689.75-1.096.16-.393.27-.843.302-1.502.031-.66.039-.87.039-2.552 0-1.68-.008-1.891-.04-2.551-.03-.659-.14-1.109-.301-1.502-.166-.407-.388-.752-.75-1.096-.361-.344-.723-.556-1.15-.714C10.34.176 9.868.07 9.176.04 8.484.011 8.263.004 6.498.004zm0 1.115c1.735 0 1.94.006 2.626.036.633.028.977.128 1.206.213.304.112.52.246.747.463.228.217.369.423.486.712.09.218.195.545.224 1.149.031.652.038.848.038 2.5 0 1.653-.007 1.849-.038 2.501-.029.603-.135.931-.224 1.15-.117.288-.258.494-.486.71-.227.217-.443.351-.747.464-.229.084-.573.185-1.206.213-.685.03-.89.036-2.626.036-1.735 0-1.94-.006-2.626-.036-.633-.028-.977-.129-1.206-.213-.304-.113-.52-.247-.747-.463-.228-.217-.369-.423-.487-.712-.089-.218-.194-.546-.223-1.149-.032-.652-.038-.848-.038-2.5 0-1.653.006-1.849.038-2.501.029-.604.134-.931.223-1.15.118-.288.26-.494.487-.71.227-.218.443-.352.747-.464.229-.085.573-.185 1.206-.213.685-.03.89-.036 2.626-.036z" mask="url(#inu72dmqlb)"/>
                    </g>
                    <path fill="#FFF" d="M6.498 8.255c-1.196 0-2.166-.923-2.166-2.063 0-1.139.97-2.062 2.166-2.062s2.166.923 2.166 2.062c0 1.14-.97 2.063-2.166 2.063zm0-5.24c-1.843 0-3.337 1.422-3.337 3.177 0 1.756 1.494 3.178 3.337 3.178 1.843 0 3.337-1.422 3.337-3.178 0-1.755-1.494-3.177-3.337-3.177zM10.746 2.889c0 .41-.349.743-.78.743-.43 0-.78-.333-.78-.743s.35-.743.78-.743c.431 0 .78.333.78.743" transform="translate(-806 -2144) translate(806 2144) translate(1.5 2)"/>
                </g>
            </g>
        </g>
    </g>
</svg>
