<svg xmlns="http://www.w3.org/2000/svg" width="54" height="48" viewBox="0 0 54 48">
    <g fill="none" fill-rule="evenodd">
        <g fill="#FFDA88" fill-rule="nonzero">
            <g>
                <g>
                    <g>
                        <path d="M24.234 6.498c-2.425 0-4.39 1.965-4.39 4.39 0 2.424 1.965 4.39 4.39 4.39s4.39-1.966 4.39-4.39c0-2.425-1.965-4.39-4.39-4.39zm0 6.38c-.829 0-1.576-.5-1.893-1.265-.317-.765-.142-1.646.444-2.232.586-.586 1.468-.762 2.233-.445.766.318 1.265 1.065 1.265 1.893.016.554-.193 1.09-.58 1.487-.385.397-.915.62-1.469.62v-.058zM24.234 32.722c-2.425 0-4.39 1.966-4.39 4.39 0 2.425 1.965 4.39 4.39 4.39s4.39-1.965 4.39-4.39c0-2.424-1.965-4.39-4.39-4.39zm0 6.38c-1.131 0-2.049-.917-2.049-2.048 0-1.132.918-2.05 2.05-2.05 1.13 0 2.048.918 2.048 2.05.016.553-.193 1.09-.58 1.486-.385.397-.915.621-1.469.621v-.059zM41.737 24c0-2.425-1.966-4.39-4.39-4.39-2.425 0-4.39 1.965-4.39 4.39s1.965 4.39 4.39 4.39c2.424 0 4.39-1.965 4.39-4.39zm-4.39 2.049c-1.132 0-2.05-.917-2.05-2.049s.918-2.049 2.05-2.049c1.13 0 2.048.917 2.048 2.049s-.917 2.049-2.049 2.049zM10.537 19.61c-2.425 0-4.39 1.965-4.39 4.39s1.965 4.39 4.39 4.39c2.424 0 4.39-1.965 4.39-4.39s-1.966-4.39-4.39-4.39zm0 6.38c-.834 0-1.585-.506-1.898-1.279-.314-.772-.127-1.658.47-2.24.599-.58 1.49-.74 2.253-.405.763.336 1.247 1.1 1.223 1.934 0 1.132-.917 2.049-2.048 2.049v-.059zM24.234 19.61c-2.425 0-4.39 1.965-4.39 4.39s1.965 4.39 4.39 4.39 4.39-1.965 4.39-4.39-1.965-4.39-4.39-4.39zm0 6.38c-.834 0-1.584-.506-1.898-1.279-.313-.772-.127-1.658.471-2.24.599-.58 1.49-.74 2.253-.405.763.336 1.247 1.1 1.223 1.934 0 1.132-.917 2.049-2.049 2.049v-.059z" transform="translate(-933 -366) translate(779 366) translate(154)"/>
                        <path d="M53.502 45.541H34.537c10.969-5.251 16.24-17.907 12.242-29.393C42.78 4.663 30.789-1.984 18.93.711 7.07 3.406-.87 14.583.49 26.668c1.358 12.086 11.581 21.22 23.743 21.215h29.268V45.54zM2.692 24c0-11.897 9.645-21.541 21.542-21.541 11.897 0 21.542 9.644 21.542 21.541S36.13 45.541 24.234 45.541C12.35 45.51 2.724 35.884 2.693 24z" transform="translate(-933 -366) translate(779 366) translate(154)"/>
                    </g>
                </g>
            </g>
        </g>
    </g>
</svg>
