<svg xmlns="http://www.w3.org/2000/svg" width="55" height="48" viewBox="0 0 55 48">
    <g fill="none" fill-rule="evenodd">
        <g fill="#FFDA88" fill-rule="nonzero">
            <g>
                <path d="M5.523 1.374c-2.122 0-3.869 1.742-3.869 3.864v27.61c0 2.123 1.747 3.865 3.869 3.865h18.22v2.21H20.43c-.6.013-1.08.504-1.08 1.104 0 .6.48 1.091 1.08 1.104h8.837c.6-.013 1.08-.503 1.08-1.104 0-.6-.48-1.091-1.08-1.104h-3.314v-2.21H37.55v8.834c0 1.204 1.005 2.208 2.21 2.208H51.35c1.205 0 2.21-1.004 2.21-2.208V17.389c0-1.204-1.005-2.21-2.21-2.21h-3.309V5.238c0-2.122-1.746-3.864-3.868-3.864H5.523zm0 2.209h38.65c.937 0 1.659.718 1.659 1.655v1.695H3.864V5.238c0-.937.722-1.655 1.659-1.655zm-1.659 5.56h41.968v6.036h-6.073c-1.205 0-2.21 1.006-2.21 2.21v11.592H3.864V9.143zM39.76 17.39H51.35v28.158H39.759V17.389zM3.864 31.19H37.55v3.314H5.523c-.937 0-1.659-.718-1.659-1.655V31.19z" transform="translate(-357 -388) translate(357 388)"/>
                <path d="M43.622 19.594c-.61 0-1.104.494-1.104 1.104 0 .61.494 1.105 1.104 1.105h3.864c.61 0 1.105-.495 1.105-1.105s-.495-1.104-1.105-1.104h-3.864zM43.622 23.462c-.61 0-1.104.495-1.104 1.105s.494 1.104 1.104 1.104h3.864c.61 0 1.105-.494 1.105-1.104 0-.61-.495-1.105-1.105-1.105h-3.864zM46.659 42.227c0 .61-.495 1.105-1.105 1.105s-1.104-.495-1.104-1.105c0-.293.116-.573.323-.78.208-.208.488-.324.781-.324.293 0 .574.116.781.323.207.208.324.488.324.781z" transform="translate(-357 -388) translate(357 388)"/>
            </g>
        </g>
    </g>
</svg>
